<svg width="164" height="151" viewBox="0 0 164 151" fill="none" xmlns="http://www.w3.org/2000/svg">
<path d="M8.72437 145.717C-0.468556 138.316 -2.24545 129.728 2.68124 117.846C8.68461 103.368 18.0133 91.0952 28.2599 79.4554C45.8996 59.4171 64.5743 40.2792 87.0156 25.7325C101.398 16.4095 117.149 9.04833 132.78 1.88586C137.843 -0.433964 144.56 -0.18723 150.368 0.399242C159.851 1.35688 166.772 14.2688 162.578 23.6187C159.014 31.5649 154.615 39.3729 149.313 46.2632C125.329 77.4343 99.5893 107.048 67.8725 130.742C56.8755 138.958 45.4059 146.718 31.4079 149.316C23.5233 150.779 16.0164 150.179 8.72437 145.717ZM51.9702 80.1175C44.3649 80.0282 37.7769 82.163 32.7963 88.4646C44.947 95.5347 82.3025 96.3726 90.8382 89.4766C79.1939 81.3423 66.0251 80.8298 51.9702 80.1175ZM65.1783 55.2435C63.7853 56.4484 62.3924 57.6533 60.9994 58.8582C61.168 59.2953 61.3366 59.7324 61.5052 60.1695C79.3564 62.8911 97.0979 70.4228 115.765 61.2424C107.126 51.7835 79.9065 48.6503 65.1783 55.2435ZM128.409 38.869C131.192 37.7323 133.975 36.5957 137.015 35.3544C127.569 23.7078 97.1542 23.0709 90.0271 34.0347C102.375 37.8879 114.575 41.21 128.409 38.869ZM27.9733 110.168C23.5628 111.321 18.9682 112.15 16.2774 116.584C27.5924 122.739 52.995 122.094 59.9389 115.436C55.3187 111.243 49.4737 110.521 43.7916 110.121C38.757 109.767 33.6454 110.504 27.9733 110.168ZM133.173 18.1921C136.989 18.2455 141.058 19.27 144.029 15.5425C136.68 9.78762 124.392 9.97552 118.655 16.5145C123.566 17.0902 127.941 17.6032 133.173 18.1921Z" fill="black"/>
</svg>
