<svg width="216" height="182" viewBox="0 0 216 182" fill="none" xmlns="http://www.w3.org/2000/svg">
<g clip-path="url(#clip0_160_912)">
<path d="M110.005 168.053C96.4192 167.07 82.741 166.763 69.2725 164.922C54.6896 162.928 40.0981 160.118 26.9019 152.982C20.238 149.378 14.4337 144.825 11.8879 137.099C10.4089 132.61 11.6756 129.057 14.4905 125.183C17.4326 128.407 20.162 131.397 23.2105 134.737C21.7121 134.977 20.6763 135.143 19.623 135.312C21.8309 140.619 29.6212 144.971 38.4161 144.842C35.5529 141.071 33.654 137.711 30.9607 135.205C25.7131 130.322 20.2551 125.815 17.789 118.669C13.7073 106.842 18.1133 96.8259 24.3346 87.296C26.4861 84.0002 29.4279 81.1399 32.337 78.4337C42.2996 69.1659 52.1999 59.8125 62.5166 50.9489C73.8656 41.1983 88.0556 38.485 102.316 37.1761C112.305 36.2593 122.49 35.4903 132.12 40.5859C136.443 42.8739 147.113 36.4827 151.254 30.1722C152.527 28.2331 153.361 25.836 155.029 24.3674C157.428 22.2545 160.202 19.9634 163.18 19.2341C169.721 17.6322 174.65 21.7263 175.546 28.618C179.083 30.4976 183.716 31.4372 183.178 37.0171C182.677 42.2175 178.281 48.1925 172.867 48.3927C165.393 48.669 160.14 50.8297 158.283 59.1664C148.921 52.3406 139.654 47.346 128.014 46.0659C121.721 45.414 116.221 44.8323 110.721 44.2505C110.69 44.7575 110.659 45.2645 110.628 45.7715C116.427 46.782 122.227 47.7925 128.026 48.8031C137.67 51.5414 147.007 54.8582 154.6 61.8381C156.608 63.684 159.017 65.0936 161.242 66.7036C160.793 67.3107 160.345 67.9178 159.896 68.5249C152.402 69.3075 144.908 70.0886 137.414 70.873C118.247 72.8793 101.691 90.5198 100.999 109.748C100.807 115.087 100.85 120.3 106.58 123.403C108.284 124.326 109.406 126.323 110.795 127.828C111.181 127.618 111.567 127.409 111.952 127.199C111.399 125.849 111.008 124.401 110.266 123.164C104.316 113.247 106.222 103.529 111.752 94.4563C118.915 82.7029 129.539 75.9385 143.524 74.8552C149.648 74.3807 155.841 74.1019 161.848 72.9396C172.129 70.9507 180.081 65.3901 185.006 55.8803C188.015 50.069 192.32 46.1469 199.358 46.022C203.311 45.9518 205.475 48.1016 206.998 51.2905C210.19 57.9755 220.852 63.1602 211.894 72.3135C209.317 74.946 205.191 77.3485 201.664 77.5161C192.058 77.9725 187.606 84.283 183.993 91.4663C181.41 96.6029 180.022 102.335 178.02 107.771C174.963 116.073 169.86 122.924 163.085 128.571C161.604 129.806 160.189 131.119 159.037 132.753C167.258 130.727 174.127 126.673 177.883 118.899C181.327 111.768 184.123 104.325 187.207 97.015C195.948 101.047 201.103 111.791 199.512 120.942C196.745 136.851 186.156 146.168 172.754 152.8C153.609 162.275 133.112 166.76 111.149 167.755C110.329 167.918 110.167 167.985 110.005 168.053ZM184.892 128.78C183.376 129.801 181.774 130.715 180.358 131.859C160.942 147.542 139.384 152.468 115.204 145.155C115.177 145.372 114.978 145.877 115.078 146.314C115.988 150.282 114.842 152.198 110.372 152.182C106.369 152.167 104.682 151.128 105.078 146.755C105.807 138.707 101.902 132.795 94.7732 129.621C89.5903 127.313 83.8766 126.196 77.9626 124.417C79.1134 122.061 80.5531 119.505 81.6291 116.804C82.7883 113.895 84.0124 110.913 84.4907 107.85C85.5337 101.173 82.2082 98.4885 75.9037 100.684C64.15 104.777 53.7449 111.273 44.5358 119.509C42.2761 121.53 40.6837 125.074 40.185 128.146C38.4638 138.746 42.8472 145.26 53.5257 148.744C56.8432 149.827 60.3344 150.377 63.7461 151.171C63.951 150.589 64.156 150.007 64.3609 149.425C62.2342 148.016 60.1501 146.536 57.9694 145.216C55.568 143.762 52.8785 142.717 50.6628 141.036C43.3096 135.454 42.9261 129.522 49.3842 123.019C51.2525 121.137 53.232 119.274 55.446 117.845C62.9633 112.993 70.6083 108.339 78.2046 103.609C78.6742 104.085 79.1437 104.56 79.6133 105.035C79.6083 114.392 74.8932 121.861 68.4465 129.678C72.5762 129.678 75.9991 129.71 79.4211 129.671C85.5077 129.602 90.8012 131.748 95.3869 135.591C102.263 141.353 101.227 150.092 93.3227 154.043C92.1285 154.64 91.0173 155.403 89.8677 156.089C89.9903 156.729 90.1129 157.369 90.2355 158.009C99.8306 158.009 109.452 158.467 119.015 157.911C137.209 156.852 154.942 153.485 170.912 144.058C177.146 140.378 183.349 136.408 186.446 128.92C186.139 128.789 185.831 128.658 184.892 128.78ZM186.294 67.8388C184.75 69.2637 183.205 70.6885 181.498 72.263C182.481 73.4131 183.308 74.3806 184.121 75.3331C191.022 70.4775 191.022 70.4774 200.725 70.2131C204.299 70.1158 206.235 68.0747 206.523 64.1023C199.539 65.5397 198.316 64.2761 200.145 57.6709C200.37 56.8584 200.308 55.3268 199.877 55.1054C198.979 54.6444 197.379 54.3538 196.72 54.8537C194.819 56.2958 193.046 58.0135 191.589 59.9053C189.8 62.2284 188.382 64.8371 186.294 67.8388ZM164.909 26.8383C163.553 27.6979 161.815 28.269 160.907 29.4682C157.377 34.1288 154.111 38.989 150.601 43.9817C152.046 44.9003 153.797 46.014 156.068 47.4585C158.403 41.5888 162.563 40.5082 167.918 40.8968C170.237 41.0652 172.703 39.2274 175.102 38.3008C174.983 37.69 174.864 37.0792 174.745 36.4684C171.851 35.9554 168.956 35.4424 166.872 35.0731C166.417 31.7297 166.075 29.2168 164.909 26.8383Z" fill="black"/>
</g>
<defs>
<clipPath id="clip0_160_912">
<rect width="216" height="182" fill="white"/>
</clipPath>
</defs>
</svg>
