<svg width="400" height="560" viewBox="0 0 400 560" fill="none" xmlns="http://www.w3.org/2000/svg">
<path d="M144.379 320.635C138.446 327.445 133.907 334.593 130.654 342.584C129.605 345.159 128.413 349.013 124.737 347.54C120.844 345.979 122.231 342.278 123.635 339.446C128.36 329.909 133.815 320.812 141.213 313.069C143.394 310.786 144.829 308.711 143.484 305.406C142.884 303.931 142.716 301.986 144.41 300.867C146.102 299.75 147.561 300.869 148.982 301.754C155.238 305.65 155.356 305.523 157.933 298.999C159.501 295.029 161.056 291.334 167.014 294.127C170.941 295.967 173.766 292.862 174.661 288.996C175.836 283.924 178.485 282.868 183.661 283.062C191.599 283.359 199.134 280.819 204.9 274.806C206.791 272.833 208.743 271.025 211.049 269.569C212.956 268.364 215.141 267.744 216.911 269.122C220.641 272.024 224.272 275.112 227.577 278.483C229.926 280.88 228.209 283.231 226.152 284.857C222.478 287.76 222.459 290.942 225.791 293.674C234.719 300.995 238.043 311.015 240.771 321.695C244.215 335.176 248.975 348.324 251.614 362.017C255.045 379.822 250.762 395.787 239.551 409.986C236.604 413.718 232.821 414.604 228.409 413.808C220.019 412.294 214.092 407.398 210.033 400.118C204.167 389.598 198.411 379.016 192.214 367.744C188.858 374.895 189.255 382.171 188.021 389.079C186.836 395.714 177.04 399.845 171.343 395.944C169.145 394.439 169.639 392.278 170.486 390.328C175.268 379.326 176.414 367.45 178.975 355.909C179.67 352.774 179.745 349.714 179.402 346.622C178.396 337.573 178.362 337.561 188.872 337.989C181.903 324.954 183.218 311.007 181.898 296.162C168.232 303.681 156.117 311.447 144.379 320.635ZM244.344 366.05C241.769 350.267 235.743 335.349 232.7 319.675C232.21 317.151 231.544 313.93 227.764 314.417C216.224 315.905 205.596 319.761 196.348 327.015C194.227 328.679 194.037 330.465 195.151 333.011C197.436 338.238 201.171 342.466 204.326 347.068C209 353.885 211.609 361.753 215.441 369.331C216.972 368.421 217.788 367.746 218.726 367.408C226.544 364.586 234.372 357.963 242.248 367.38C242.789 368.027 243.787 367.763 244.344 366.05ZM208.115 282.759C204.596 285.799 200.696 288.065 196.049 288.939C193.933 289.336 191.87 290.198 191.431 292.566C189.733 301.723 189.836 310.881 191.199 321.608C202.146 311.985 215.357 310.505 227.732 305.538C224.689 302.086 222.594 303.558 220.675 304.524C218.861 305.438 217.207 307.325 215.203 305.105C213.564 303.288 212.677 300.82 213.886 298.736C217.516 292.478 211.195 288.102 211.118 282.595C211.116 282.506 209.653 282.438 208.115 282.759ZM240.223 394.491C241.248 392.01 242.636 389.614 243.233 387.035C245.666 376.527 238.73 372.392 231.818 372.939C223.663 373.585 215.527 375.74 209.642 382.508C211.464 387.366 213.52 391.87 216.272 396.037C224.817 408.972 232.541 408.736 240.223 394.491ZM203.231 360.019C201.304 356.443 199.376 352.868 197.131 348.703C196.949 358.722 198.948 367.223 205.447 375.018C207.437 369.476 204.952 365.273 203.231 360.019Z" fill="black"/>
<path d="M199.043 159.255C197.473 153.306 199.959 146.939 194.803 141.907C191.216 144.906 187.924 148.021 184.279 150.646C164.761 164.704 154.001 185.519 141.891 205.294C140.372 207.774 139.227 210.483 137.713 212.967C136.388 215.139 134.45 216.35 131.948 214.772C129.52 213.239 130.48 211.245 131.516 209.321C138.43 196.481 145.588 183.793 154.215 171.995C157.304 167.771 160.362 163.696 158.779 157.756C158.187 155.535 159.421 152.889 161.322 151.21C161.705 151.126 161.97 150.976 162.091 151.053C174.656 159.027 171.999 150.301 171.652 142.826C171.532 140.257 174.931 140.976 176.682 142.182C178.749 143.606 180.555 144.553 182.796 142.597C185.2 140.498 184.156 138.174 183.625 135.704C183 132.795 178.973 129.206 183.524 127C188.038 124.812 189.908 129.274 191.964 132.337C192.636 133.337 192.863 134.742 194.481 135.065C198.096 133.946 197.833 130.286 199.122 127.612C200.739 124.256 202.021 119.983 206.514 120.118C211.187 120.259 211.848 124.694 212.911 128.263C214.147 132.413 214.949 136.762 218.75 140.12C222.519 137.507 222.357 133.257 223.151 129.659C223.947 126.053 225.16 123.026 229.173 122.869C233.129 122.715 234.029 126.16 235.051 129.139C235.389 130.123 235.93 131.146 235.893 132.133C235.544 141.635 239.578 149.464 243.71 157.822C250.015 170.576 257.906 182.252 265.344 194.221C273.515 207.369 277.561 221.371 277.78 236.736C277.847 241.373 276.157 244.296 271.956 245.93C267.495 247.666 263.049 249.444 258.565 251.119C251.186 253.876 245.223 251.003 239.651 246.358C230.845 239.016 222.412 231.293 214.697 222.795C213.206 221.152 212.035 218.964 209.264 218.669C206.248 220.265 206.77 224.166 204.566 226.365C202.932 227.994 201.336 230.006 198.827 229.492C196.309 228.977 195.544 226.564 194.854 224.331C192.026 215.186 195.351 206.229 195.715 197.184C195.794 195.211 196.871 193.488 199.05 193.202C201.598 192.867 202.722 194.855 203.68 196.701C207.248 203.579 211.343 210.063 217.169 215.288C219.414 217.302 221.519 219.614 225.527 219.475C211.084 201.931 204.079 181.31 199.043 159.255ZM224.627 204.755C225.128 205.419 225.752 206.024 226.111 206.758C228.935 212.531 232.527 214.805 239.03 211.303C244.344 208.441 250.559 207.98 256.594 207.433C258.768 207.236 261.244 207.972 263.501 205.223C257.358 196.914 252.362 187.668 246.889 178.706C239.821 167.132 235.858 166.131 223.986 173.229C221.347 174.807 219.184 177.169 216.751 179.106C214.013 181.287 213.865 183.679 215.34 186.798C218.096 192.625 220.592 198.571 224.627 204.755ZM232.183 228.904C237.162 233.308 241.435 238.436 246.868 242.404C253.389 247.165 258.716 242.416 264.411 240.757C269.422 239.298 269.03 235.187 268.677 231.129C268.424 228.233 268.423 225.311 268.392 222.4C268.35 218.491 266.294 216.386 262.668 215.255C255.232 212.935 236.421 218.474 231.453 224.424C230.129 226.01 229.631 227.131 232.183 228.904ZM208.812 152.98C206.694 160.013 208.653 166.344 211.771 173.859C219.102 165.609 228.187 162.792 237.831 159.95C234.083 154.645 229.418 154.623 225.023 154.149C219.9 153.596 214.62 154.725 208.812 152.98Z" fill="black"/>
<path d="M76.881 254.59C79.6705 249.531 83.8796 248.881 88.2668 250.44C91.4367 251.565 92.3451 260.495 89.9495 264.894C87.695 269.034 83.6218 269.606 79.6559 268.702C76.4674 267.975 75.3232 264.949 75.5205 261.815C75.663 259.551 76.3185 257.319 76.881 254.59Z" fill="black"/>
<path d="M214.387 472.013C218.667 467.092 223.15 468.165 226.68 471.609C229.906 474.757 230.12 479.23 227.377 483.081C224.632 486.936 220.708 487.512 216.982 484.781C212.716 481.655 210.783 477.524 214.387 472.013Z" fill="black"/>
<path d="M346.727 223.283C350.055 227.501 348.511 231.308 346.346 234.589C343.971 238.189 339.848 239.021 336.515 236.593C332.499 233.667 331.811 228.768 333.295 224.24C334.658 220.083 338.397 218.98 342.435 220.085C343.91 220.488 345.101 221.931 346.727 223.283Z" fill="black"/>
<path d="M330.047 332.132C324.161 330.786 321.922 327.035 323.053 321.896C324.063 317.306 327.354 315.015 332.373 315.839C335.246 316.311 337.531 317.484 338.616 320.289C339.92 323.66 338.192 326.311 336.326 328.874C334.893 330.842 332.835 331.735 330.047 332.132Z" fill="black"/>
<path d="M216.054 68.6993C213.859 64.4956 214.416 61.0414 217.562 58.2256C219.802 56.2215 222.583 54.8625 225.519 56.2748C229.263 58.0762 232.264 61.2167 231.212 65.5328C230.073 70.2065 225.625 71.1015 221.344 71.3117C219.388 71.4077 217.796 70.371 216.054 68.6993Z" fill="black"/>
<path d="M90.583 344.327C97.1004 341.284 99.3405 345.243 100.9 349.969C102.567 355.024 100.067 358.4 95.8734 360.789C93.9594 361.879 92.129 361.21 90.8744 359.58C88.3311 356.276 85.664 352.943 87.0183 348.284C87.5158 346.573 88.8353 345.544 90.583 344.327Z" fill="black"/>
<path d="M331.087 146.556C331.825 148.104 332.469 149.216 332.706 150.41C333.38 153.811 334.844 157.621 330.316 159.539C326.613 161.108 322.702 161.135 320.296 157.446C318.053 154.004 317.224 149.806 320.523 146.532C323.534 143.542 327.238 142.241 331.087 146.556Z" fill="black"/>
<path d="M81.0578 220.072C84.1353 218.881 87.2105 216.68 89.5079 219.262C92.4921 222.615 91.4401 227.096 90.6995 231.113C90.09 234.42 87.0248 234.769 84.378 234.987C78.4194 235.478 78.664 231.03 78.396 227.083C78.2228 224.532 78.4983 222.125 81.0578 220.072Z" fill="black"/>
<path d="M151.371 87.2798C152.745 93.5772 148.435 94.9609 144.363 95.558C139.784 96.2294 134.634 91.8489 134.434 88.0046C134.226 84.0113 137.727 81.2582 142.538 81.6852C146.245 82.0142 149.333 83.4313 151.371 87.2798Z" fill="black"/>
<path d="M92.9102 306.242C92.6912 312.499 88.9691 314.252 84.1305 313.776C79.6268 313.332 78.1971 309.532 77.9262 305.712C77.6036 301.162 80.59 298.871 84.7835 298.646C89.512 298.392 92.7365 300.451 92.9102 306.242Z" fill="black"/>
<path d="M110.177 402.993C107.963 402.776 106.632 401.785 105.625 400.443C103.512 397.625 101.049 394.697 103.422 390.973C105.087 388.362 107.801 386.992 110.913 387.794C115.037 388.856 117.765 391.588 118.386 395.932C118.958 399.927 115.869 401.193 113.023 402.492C112.295 402.824 111.427 402.851 110.177 402.993Z" fill="black"/>
<path d="M137.508 428.098C146.259 431.997 147.802 438.4 141.802 444.032C138.239 447.377 134.811 446.74 133.246 442.159C131.396 436.743 130.83 431.458 137.508 428.098Z" fill="black"/>
<path d="M296.469 420.657C294.413 416.668 293.088 412.741 295.73 409.283C297.948 406.381 301.769 406.874 305.005 407.323C309.558 407.954 311.49 411.841 308.817 415.439C305.955 419.292 302.838 423.643 296.469 420.657Z" fill="black"/>
<path d="M260.717 458.3C263.089 454.667 265.763 451.935 270.022 453.252C273.627 454.367 276.648 457.099 275.571 461.033C274.408 465.281 270.502 467.971 266.118 467.521C261.41 467.037 260.096 463.159 260.717 458.3Z" fill="black"/>
<path d="M290.301 98.101C288.303 97.46 286.624 97.109 285.258 96.2572C282.787 94.7173 278.884 93.7785 280.456 89.5841C281.753 86.1276 284.447 83.4134 288.356 83.7663C293.146 84.1988 295.353 88.1066 296.101 92.2612C296.734 95.7794 294.734 98.1722 290.301 98.101Z" fill="black"/>
<path d="M107.658 153.487C105.442 158.572 101.549 159.424 97.208 158.342C94.0995 157.566 93.3667 154.766 93.5898 151.873C93.893 147.942 94.8079 144.012 99.7199 144.015C105.358 144.018 107.739 147.594 107.658 153.487Z" fill="black"/>
<path d="M344.995 264.03C346.367 265.835 346.492 267.444 346.369 269.128C346.077 273.151 344.693 276.442 340.32 277.359C337.548 277.941 335.422 276.857 334.574 274.009C333.382 270.012 332.091 265.807 335.864 262.531C338.958 259.844 341.992 261.193 344.995 264.03Z" fill="black"/>
<path d="M83.7769 188.138C84.2807 187.151 84.5327 186.53 84.9865 186.149C89.9647 181.973 94.5465 181.49 96.8449 184.854C98.9258 187.899 96.8759 193.471 92.6465 196.537C90.6839 197.959 88.3436 199.096 86.4008 197.597C83.6095 195.444 83.2577 192.019 83.7769 188.138Z" fill="black"/>
<path d="M302.446 123.177C301.798 119.686 301.918 116.953 304.934 115.112C308.444 112.968 314.263 114.161 316.524 117.598C318.626 120.792 317.136 122.995 314.563 124.937C309.592 128.69 306.324 128.347 302.446 123.177Z" fill="black"/>
<path d="M309.213 379.206C309.447 371.984 314.023 367.972 319.158 370.137C322.519 371.554 324.66 374.579 323.501 378.101C322.083 382.411 318.237 383.656 313.889 382.832C311.979 382.47 310.596 381.154 309.213 379.206Z" fill="black"/>
<path d="M176.23 466.261C176.133 468.555 174.921 469.64 173.652 470.754C169.987 473.972 166.245 474.556 162.79 470.701C159.978 467.564 161.068 464.547 164.04 462.144C167.846 459.067 171.556 458.889 174.763 463.08C175.376 463.881 175.726 464.881 176.23 466.261Z" fill="black"/>
<path d="M250.742 78.0536C247.9 72.998 249.773 70.2465 254.509 69.0486C258.596 68.015 262.501 67.9844 263.85 73.1686C265.134 78.1054 261.69 81.8645 256.606 80.9082C254.668 80.5437 252.905 79.2559 250.742 78.0536Z" fill="black"/>
<path d="M175.738 73.7394C171.599 70.9281 169.572 67.7801 173.304 63.8189C175.847 61.1196 182.708 61.9542 185.282 64.9569C187.882 67.9892 186.867 72.2709 183.006 73.3792C180.877 73.9905 178.5 73.7393 175.738 73.7394Z" fill="black"/>
<path d="M122.945 118.953C118.441 119.693 115.797 118.008 114.441 114.152C113.688 112.01 114.639 110.564 116.323 109.465C119.614 107.318 123.255 106.424 126.799 108.334C130.526 110.343 128.963 114.956 122.945 118.953Z" fill="black"/>
<path d="M342.473 192.262C341.74 196.313 339.18 197.417 336.027 197.275C333.99 197.184 333.41 195.4 333.393 193.652C333.36 190.417 332.238 186.192 336.102 184.851C342.375 182.675 341.742 188.141 342.473 192.262Z" fill="black"/>
<path d="M214.747 326.654C218.273 327.949 219.833 330.609 221.467 333.242C223.346 336.272 223.093 338.616 219.635 340.229C216.32 341.774 213.706 341.668 212.415 337.605C211.136 333.577 207.277 329.16 214.747 326.654Z" fill="black"/>
<path d="M220.369 385.042C224.525 384.631 229.304 382.652 229.633 389.015C229.744 391.154 228.251 393.573 225.765 394.196C222.936 394.904 221.114 392.713 219.452 390.959C217.663 389.069 217.315 386.905 220.369 385.042Z" fill="black"/>
<path d="M234.627 188.721C232.275 189.196 230.455 189.06 228.754 188.168C226.79 187.137 224.349 186.443 224.376 183.614C224.395 181.724 225.908 180.757 227.448 180.143C229.7 179.246 231.968 179.339 233.653 181.305C235.439 183.39 238.234 185.41 234.627 188.721Z" fill="black"/>
<path d="M251.584 239.667C245.35 235.816 248.097 231.557 250.011 226.759C254.275 228.781 257.157 231.427 257.286 235.653C257.375 238.53 254.89 239.782 251.584 239.667Z" fill="black"/>
</svg>
