<svg width="185" height="134" viewBox="0 0 185 134" fill="none" xmlns="http://www.w3.org/2000/svg">
<path d="M185.978 88.2751C177.826 109.386 160.56 119.323 141.035 125.975C118.106 133.787 94.4815 134.727 70.5497 131.375C50.09 128.509 31.1243 122.095 14.6241 109.353C12.2677 107.533 10.035 105.448 8.13204 103.164C-3.33216 89.4012 -2.60039 72.9612 9.85437 59.8926C16.9207 52.4781 25.4892 47.5024 35.1444 44.4211C38.5433 43.3363 40.5446 41.524 41.2536 38.042C41.9159 34.789 43.0852 31.6235 43.5625 28.3511C45.3116 16.3609 52.0767 8.88499 63.4926 5.22876C83.3485 -1.13063 103.391 -1.70645 123.489 3.59609C137.806 7.3732 145.947 16.5381 146.322 31.848C146.374 33.9754 147.042 36.0961 147.501 38.203C148.114 41.0119 149.733 42.5517 152.592 43.6586C166.94 49.2123 179.318 57.2116 185.771 72.471C185.978 77.764 185.978 82.7861 185.978 88.2751ZM120.62 98.8406C128.152 96.6548 135.626 94.3972 141.57 88.8259C144.496 86.0829 145.813 82.9607 144.924 78.9835C143.403 72.1725 141.961 65.3431 140.38 58.546C139.514 54.8227 138.474 51.1378 137.423 47.4612C137.103 46.343 136.508 45.1606 135.045 45.3548C133.579 45.5492 133.342 46.8266 133.307 48.0092C133.244 50.1722 133.24 52.3414 133.326 54.5034C133.463 57.9564 132.753 60.9988 128.907 61.8614C124.698 62.8053 121.315 61.4334 119.437 57.3271C118.679 55.671 118.334 53.8069 117.457 52.229C115.45 48.6192 112.272 48.7291 110.186 52.2972C109.193 53.9949 109.365 55.8209 109.305 57.6411C109.168 61.7832 109.708 65.966 108.294 70.0224C106.344 75.6192 102.618 77.9415 96.6948 76.9405C91.3374 76.035 90.6551 72.0027 90.5616 67.558C90.4744 63.4165 91.1854 59.1991 89.6745 55.1704C88.0548 50.8517 84.057 49.8448 80.5255 52.7893C77.2751 55.4994 76.9347 59.3727 76.2909 63.1478C75.2255 69.3951 71.3168 73.5038 65.4208 74.7484C62.0115 75.468 59.3719 74.3709 58.0331 71.1984C56.5475 67.6782 55.6197 64.0642 56.2029 60.0453C56.7722 56.1216 56.6633 52.0864 56.6764 48.0995C56.6865 45.0255 55.2581 42.8037 52.1405 41.6351C51.628 42.2882 51.045 42.7357 50.8589 43.3115C47.0251 55.1761 43.0947 67.0128 39.513 78.9539C38.1922 83.3574 40.0181 87.1236 43.6894 89.9068C47.8752 93.0801 52.7302 94.891 57.6482 96.4447C78.1236 102.913 98.9106 102.775 120.62 98.8406ZM73.0916 122.025C92.5789 123.396 112.001 123.601 131.056 118.338C144.659 114.581 157.688 109.558 167.891 99.3028C174.53 92.6298 179.062 84.8724 175.595 75.084C171.605 63.8208 163.169 57.1465 151.501 53.279C151.495 60.1319 153.184 65.4491 157.743 70.0119C165.661 77.937 166.013 86.6791 159.157 95.5174C152.582 103.992 143.076 107.939 133.367 110.799C108.55 118.111 83.4548 117.977 58.5187 111.284C47.7174 108.385 37.3349 104.076 28.6298 96.7979C18.1876 88.0676 17.9995 74.8978 28.5912 68.0704C34.2481 64.424 35.9282 59.6138 36.8858 53.1159C26.3855 57.2636 17.8962 62.9732 12.5281 72.5837C8.38155 80.0073 9.01821 87.2287 13.7972 94.1618C16.9504 98.7362 20.7893 102.643 25.4935 105.607C39.8055 114.625 55.4126 119.946 73.0916 122.025ZM65.5227 25.9477C73.6234 32.1825 91.2053 34.7606 101.188 30.8459C98.2543 30.8459 95.8769 31.1734 93.6206 30.7896C83.4671 29.062 72.179 30.9383 64.333 21.6302C63.406 23.3107 64.5739 24.2883 65.5227 25.9477Z" fill="black"/>
<path d="M127.149 80.1756C127.457 88.1754 127.457 88.1754 125.367 91.6469C122.147 85.4671 121.389 79.2146 120.897 72.9152C120.82 71.9256 121.54 71.0022 122.705 70.8956C123.908 70.7855 124.538 71.7175 124.863 72.6257C125.697 74.9635 126.367 77.3604 127.149 80.1756Z" fill="black"/>
<path d="M52.2471 68.8282C51.5397 72.8294 50.8851 76.409 50.1521 79.9725C49.9374 81.0165 49.2705 81.7561 48.0682 81.6747C47.13 81.6112 46.6374 80.9274 46.2297 80.1895C44.2606 76.6257 47.2933 66.9145 51.2096 64.3701C52.78 65.3868 52.109 67.0102 52.2471 68.8282Z" fill="black"/>
<path d="M137.539 79.3252C137.71 81.1993 138.068 82.7089 137.814 84.1069C137.538 85.6219 136.356 86.3692 134.901 85.2132C133.031 83.7276 132.828 71.7415 134.703 69.7227C137.133 72.3722 136.835 75.789 137.539 79.3252Z" fill="black"/>
</svg>
