<svg width="175" height="117" viewBox="0 0 175 117" fill="none" xmlns="http://www.w3.org/2000/svg">
<path d="M1.78556 63.9294C-1.18473 56.8026 -0.166033 50.3548 2.76413 43.8421C5.00193 38.8683 7.07268 33.7462 8.49291 28.4941C10.8688 19.7078 16.3983 14.063 24.5975 10.848C32.4587 7.76554 40.4279 4.95881 48.3492 2.02982C55.2881 -0.535901 62.0959 -0.652769 69.3142 1.58539C73.2315 2.79998 78.0849 3.04962 81.9844 1.91217C99.097 -3.07936 112.612 2.22864 123.973 15.059C127.284 18.7977 130.676 22.4649 134.077 26.1217C141.128 33.7026 150.217 37.6064 159.939 40.3342C166.162 42.0802 172.467 44.1412 173.721 51.5053C175.114 59.6782 172.604 66.8331 166.434 72.722C163 76.0003 159.625 79.5154 157.019 83.4506C151.948 91.1076 145.287 96.2666 136.723 99.5252C132.157 101.263 127.934 104.023 123.761 106.648C116.248 111.375 108.503 113.334 99.3552 112.636C92.1532 112.087 84.6116 113.995 77.4321 115.701C70.198 117.42 63.3861 116.105 56.5475 114.478C48.2853 112.511 41.3414 108.349 35.5952 101.84C32.9421 98.8349 29.1173 96.6856 25.5022 94.7482C19.411 91.484 15.0839 87.0209 12.0687 80.6732C9.33011 74.908 5.3406 69.737 1.78556 63.9294ZM31.8559 83.0744C43.0391 82.3969 53.4288 84.1392 63.2851 90.3028C70.0885 94.5572 78.2484 95.6232 86.3889 93.8102C97.0207 91.4424 107.549 88.481 118.276 86.696C137.635 83.4744 148.524 69.1984 159.974 55.6864C163.249 51.8215 161.355 47.9463 156.205 47.1875C144.435 45.4533 135.337 39.32 127.278 30.9774C122.444 25.9735 117.546 20.8611 111.949 16.8019C102.124 9.6767 91.4173 6.41599 79.1683 11.316C76.157 12.5207 71.8231 11.9167 68.5969 10.7558C62.9427 8.72115 57.7022 8.53298 52.1299 10.6793C44.4106 13.6526 36.4789 16.0966 28.8573 19.2904C25.7705 20.584 22.1213 22.6672 20.7044 25.4115C16.5619 33.4348 12.6296 41.7415 10.0958 50.3719C7.52007 59.1452 19.8443 79.3458 28.5376 82.5203C29.3088 82.8019 30.1644 82.8526 31.8559 83.0744ZM49.1694 97.0492C48.469 97.1347 47.7686 97.2202 46.8775 97.3291C52.2136 104.558 60.8788 107.3 66.3787 103.215C59.7082 104.261 54.1808 102.358 49.1694 97.0492Z" fill="#0B0C09"/>
<path d="M85.7873 87.1009C77.8697 86.8696 71.0193 84.9948 64.8358 80.5082C62.5417 78.8437 59.5109 77.6552 56.6938 77.3394C40.3432 75.5061 34.8072 58.2906 39.1941 46.4845C42.5831 37.3639 48.6266 31.1214 58.5375 28.8545C61.4542 28.1873 64.2786 26.2705 66.6834 24.3484C82.491 11.714 100.192 14.0356 114.243 26.4555C118.977 30.6404 123.726 34.8228 128.241 39.2383C133.525 44.4055 139.108 48.8388 146.329 51.1924C151.919 53.0143 152.763 56.5028 148.48 60.4255C142.376 66.0162 135.996 71.4081 129.173 76.0642C126.121 78.1477 121.708 78.2386 117.912 79.2328C113.448 80.4018 108.997 81.6196 104.518 82.726C98.4374 84.2281 92.3351 85.6446 85.7873 87.1009ZM131.715 58.8569C131.715 57.1633 131.715 55.4697 131.715 52.5232C127.168 51.0368 121.865 49.3633 116.606 47.562C113.337 46.4424 109.666 45.7631 106.99 43.7842C98.9625 37.8475 89.9476 36.6254 80.4704 37.1576C71.9341 37.6368 64.5163 43.9485 62.9109 51.7156C60.1457 65.0943 70.9403 77.4651 84.9165 76.4082C94.8386 75.6578 104.712 73.1359 114.591 73.2271C126.783 73.3396 133.449 65.2403 141.211 57.9651C138.315 58.3405 135.418 58.7158 131.715 58.8569ZM50.8495 52.1288C52.3966 48.9057 53.9437 45.6825 55.628 42.1737C47.8339 45.7293 45.1551 55.7358 50.7042 59.8394C50.7042 57.4882 50.7042 55.2267 50.8495 52.1288Z" fill="#0C0D0A"/>
<path d="M39.048 24.1616C33.6454 27.5467 28.614 30.8296 23.7625 33.9951C21.9257 26.2899 37.1058 16.7958 48.4604 20.651C45.4467 21.7871 42.433 22.9232 39.048 24.1616Z" fill="#1B1C19"/>
<path d="M25.9915 70.9801C21.8895 65.1174 17.788 59.576 21.8889 51.1104C23.643 55.6574 24.7051 59.479 26.5428 62.8818C28.4789 66.467 31.1559 69.6521 33.5092 73.012C33.2331 73.4525 32.9571 73.8929 32.6811 74.3334C30.5352 73.3042 28.3892 72.2751 25.9915 70.9801Z" fill="#151613"/>
<path d="M31.9131 36.9778C32.0523 31.3147 34.3679 29.1503 40.3227 29.4617C37.4043 32.1954 34.8351 34.6019 31.9131 36.9778Z" fill="#222321"/>
<path d="M76.6545 43.7519C83.0697 40.5023 89.1839 38.5225 95.5231 44.0925C93.2263 44.0925 90.8684 43.7553 88.6448 44.1588C83.0709 45.1705 78.4268 47.538 75.8507 53.1611C75.1939 54.5947 72.8527 55.2567 71.2854 56.2733C70.938 54.2976 69.6959 51.8453 70.4389 50.4507C71.7743 47.9442 74.3011 46.0725 76.6545 43.7519Z" fill="#161715"/>
<path d="M76.2384 60.9087C83.0508 63.9879 89.5102 66.9973 95.6918 69.8773C90.1991 74.8431 76.2117 70.2473 71.918 60.8389C73.3926 60.8389 74.639 60.8389 76.2384 60.9087Z" fill="#151614"/>
<path d="M111.99 66.8815C116.274 66.0693 120.208 65.4224 124.143 64.7754C124.297 65.4936 124.451 66.2119 124.605 66.9301C119.634 68.1126 114.663 69.295 109.692 70.4774C109.499 70.1128 109.305 69.7483 109.111 69.3838C109.955 68.6048 110.798 67.8258 111.99 66.8815Z" fill="#252524"/>
</svg>
