<svg width="163" height="145" viewBox="0 0 163 145" fill="none" xmlns="http://www.w3.org/2000/svg">
<path d="M148.185 74.1391C154.481 79.2736 155.541 83.2537 152.674 90.5379C152.092 92.0148 151.879 93.1826 152.665 94.7442C160.421 110.135 154.954 125.801 139.284 133.939C127.987 139.806 115.726 142.126 103.335 143.415C83.7427 145.454 64.1074 145.329 44.674 141.564C34.3381 139.562 24.3015 136.524 15.6082 130.242C6.33144 123.538 2.18856 114.414 3.1982 103.006C3.48746 99.7374 4.69684 96.701 7.35002 94.7593C9.94984 92.8567 9.89013 91.2333 8.52033 88.5135C5.07749 81.6774 7.95497 74.6526 15.5411 71.165C19.6775 80.5783 28.0128 81.3347 36.7863 80.988C39.3029 80.8886 41.411 81.3779 42.8223 83.6311C48.4345 92.5914 60.8206 91.6866 67.5277 84.6811C68.564 83.5988 69.5451 82.4635 70.5842 81.384C74.624 77.1871 76.4329 77.0133 81.2155 80.5801C83.9288 82.6036 86.9412 83.9568 90.1175 84.9959C96.8076 87.1846 103.176 90.0337 108.742 94.4039C112.938 97.6975 116.595 97.3485 119.972 93.2524C125.832 86.147 133.475 80.9466 139.995 74.5458C142.448 72.1379 145.124 72.7914 148.185 74.1391ZM107.926 133.013C115.794 132.492 123.438 130.833 130.636 127.66C137.713 124.54 143.553 119.91 145.578 111.946C146.406 108.688 147.166 105.206 143.128 101.454C143.133 113.23 134.484 116.345 126.738 119.767C118.973 123.198 110.733 125.362 101.358 122.226C105.274 118.643 109.6 119.458 113.258 118.202C117.029 116.906 120.927 115.95 124.63 114.491C130.481 112.185 131.601 111.207 133.781 107.821C133.228 107.938 132.752 108.009 132.292 108.141C98.7278 117.756 65.3179 116.627 31.9895 106.848C27.1749 105.435 22.6077 103.483 17.9849 101.615C16.202 100.894 14.2229 100.633 13.2283 102.786C12.3533 104.68 13.796 105.919 15.1415 106.926C16.1992 107.718 17.3602 108.428 18.5721 108.949C25.0141 111.719 31.7012 113.733 38.6041 114.94C45.8729 116.212 53.1714 117.313 60.4569 118.489C60.3962 119.01 60.3355 119.531 60.2747 120.052C44.395 124.689 29.448 118.76 13.6386 114.016C17.5912 122.143 23.9255 125.726 30.9733 127.998C55.8727 136.027 81.4127 135.271 107.926 133.013Z" fill="black"/>
<path d="M14.1966 36.3134C23.6656 16.8883 39.0942 5.84253 59.7244 2.14179C79.6429 -1.4313 99.5849 -0.610096 118.941 5.18116C134.79 9.92306 145.918 20.5881 151.865 36.26C152.57 38.1178 153.917 40.4314 153.362 41.9458C151.045 48.2715 154.008 51.4751 158.868 54.8956C162.565 57.4982 162.857 64.1249 160.698 67.7775C158.544 71.4223 153.989 72.8499 148.675 71.2326C146.153 70.465 143.789 69.1784 141.511 68.1954C140.139 68.3185 139.586 69.2436 139.198 70.1179C134.799 80.0173 123.618 80.6675 116.062 77.2893C110.796 74.9352 106.905 74.3135 102.744 79.5218C99.5517 83.5174 92.8696 82.2257 87.4999 77.6536C85.4893 75.9417 83.9649 73.4602 81.2453 72.8336C76.6434 71.7734 72.9929 73.1303 69.8004 76.9259C61.1671 87.1902 53.123 87.3348 43.9814 77.3716C41.7594 74.9499 40.2538 76.0993 38.4207 77.1182C30.4132 81.5692 20.0136 77.7548 21.065 66.8554C21.1202 66.2832 20.7036 65.6654 20.5123 65.0857C17.6452 64.5612 16.0711 66.6929 14.0683 67.6647C7.62584 70.7908 2.49489 69.9987 0.586167 65.4129C-1.51332 60.3689 2.25317 53.677 8.27814 51.8109C9.98187 51.2832 11.7225 50.8747 13.8355 50.3069C11.4668 45.5514 12.0679 41.0787 14.1966 36.3134ZM42.7849 53.3575C66.3806 57.2162 90.1199 57.7766 113.879 55.7157C122.099 55.0026 130.404 53.5799 137.889 49.5773C144.585 45.9966 145.391 43.5991 142.399 36.718C136.787 23.813 126.511 16.0642 113.332 12.9007C94.2549 8.32158 74.8313 6.93369 55.6888 12.6825C41.9282 16.8151 30.3466 24.4038 22.8437 37.1355C19.3215 43.1123 20.6483 46.7281 27.0488 49.1998C31.869 51.0612 36.9028 52.1553 42.7849 53.3575Z" fill="black"/>
<path d="M108.328 83.0919C108.056 80.3165 109.153 79.0811 111.477 79.838C114.712 80.8918 117.978 82.0704 120.045 85.1439C116.309 87.9691 112.829 87.4199 108.328 83.0919Z" fill="black"/>
<path d="M130.678 119.533C133.355 118.471 135.001 115.857 138.004 116.19C137.316 122.25 125.585 128.862 116.647 127.801C120.387 122.873 126.398 122.884 130.678 119.533Z" fill="black"/>
<path d="M119.349 34.8703C116.444 32.8718 114.797 30.3318 114.2 27.3622C113.636 24.5529 114.657 22.7565 118.075 23.7299C122.533 24.9995 124.579 28.8189 125.172 32.5223C125.661 35.5749 122.35 35.8673 119.349 34.8703Z" fill="black"/>
<path d="M105.055 14.7792C107.322 14.9384 109.081 15.3906 110.47 16.7152C112.772 18.9102 111.954 22.5497 108.99 23.4546C105.68 24.4654 100.371 21.8519 99.6717 18.5334C98.7571 14.1922 102.005 14.7096 105.055 14.7792Z" fill="black"/>
<path d="M91.7437 36.1964C90.6972 34.4779 89.7791 33.0934 89.2147 31.5772C88.5991 29.9236 87.6952 27.8969 89.6213 26.6222C91.6893 25.2536 93.8247 26.039 95.4246 27.7017C97.4582 29.8152 99.9793 32.1087 98.3088 35.3695C96.9616 37.9991 94.5044 38.2485 91.7437 36.1964Z" fill="black"/>
<path d="M71.9926 24.6443C73.3134 28.1234 72.9706 31.1316 70.9712 33.88C69.7354 35.5786 67.9273 35.9401 66.079 35.4068C64.0288 34.8152 64.134 32.9566 64.2468 31.2817C64.5607 26.6183 67.3039 24.1052 71.9926 24.6443Z" fill="black"/>
<path d="M81.9336 12.4065C84.6754 13.7013 86.5534 15.284 86.0792 18.2137C85.7908 19.9956 84.2932 20.9829 82.6584 21.4219C80.3476 22.0424 78.4852 21.1348 77.0477 19.2703C75.8213 17.6797 75.5939 15.9397 76.5212 14.1926C77.6028 12.1547 79.4011 11.6502 81.9336 12.4065Z" fill="black"/>
<path d="M57.3392 17.459C60.9857 20.2459 59.2354 22.6948 56.9964 24.5916C54.8528 26.4076 52.0075 26.2927 50.3584 23.989C48.5508 21.4641 51.1558 20.1402 52.8687 19.0043C54.0726 18.206 55.5959 17.8894 57.3392 17.459Z" fill="black"/>
<path d="M137.293 40.9458C138.349 40.3727 139.177 39.9028 139.875 40.6369C140.993 41.8117 140.02 42.9087 139.329 43.6922C135.932 47.5431 131.85 50.0328 124.947 49.7845C128.614 45.0775 133.547 44.0437 137.293 40.9458Z" fill="black"/>
<path d="M37.125 32.4637C38.6184 29.7807 40.5049 29.4917 42.4661 31.2504C43.5081 32.1848 43.06 33.5374 41.9159 34.1386C39.9957 35.1478 37.836 36.24 37.125 32.4637Z" fill="black"/>
</svg>
