<svg width="185" height="126" viewBox="0 0 185 126" fill="none" xmlns="http://www.w3.org/2000/svg">
<path d="M44.9314 112.149C39.8708 115.913 35.6126 120.49 30.3606 122.912C16.5183 129.297 3.30112 121.961 0.506907 106.899C-0.118532 103.528 -0.0876657 99.9528 0.184557 96.5145C0.704528 89.9471 0.841557 83.1952 2.58802 76.9237C4.23738 71.001 7.71019 65.5776 10.4692 59.978C11.1852 58.5248 12.9325 57.2764 13.0176 55.8624C13.9121 41.0071 24.0171 32.9988 35.2711 26.1008C39.9553 23.2297 44.2316 20.4798 47.7078 15.9307C54.368 7.21499 64.1678 3.19022 74.673 1.29284C86.2418 -0.796636 97.9454 -0.472324 109.132 3.14086C114.652 4.9238 119.501 8.74631 124.717 11.5275C126.679 12.5733 128.756 13.8022 130.888 14.0597C141.173 15.302 149.604 19.2504 155.193 28.5026C156.518 30.6951 158.989 32.6337 161.375 33.6748C176.843 40.4236 186.664 57.4381 184.43 74.1688C182.936 85.3621 173.51 90.0502 162.491 85.0534C160.528 84.1631 158.671 83.025 156.676 82.223C154.992 81.5459 152.991 80.4332 151.454 80.8155C141.771 83.2231 131.836 84.7957 123.235 90.6477C119.141 93.433 114.246 95.0996 109.598 96.9908C106.732 98.1573 103.317 98.2336 100.728 99.773C93.693 103.955 86.2878 105.36 78.2554 104.498C76.3436 104.293 73.9755 104.137 72.473 105.045C65.8104 109.069 58.4774 109.947 50.9921 110.562C49.0625 110.721 47.1832 111.492 44.9314 112.149ZM112.316 80.0667C114.31 67.7775 112.977 55.8756 107.659 44.5966C100.604 29.6339 90.1436 18.4138 73.0848 15.3124C66.6324 14.1393 60.1951 14.5325 54.5975 18.8219C58.8483 19.7958 63.1239 19.8301 67.2458 20.6434C91.2502 25.3801 104.846 49.1064 106.287 67.4296C106.785 73.7522 107.08 80.0909 107.467 86.4222C107.958 86.583 108.448 86.7437 108.939 86.9044C110.001 84.8921 111.063 82.8797 112.316 80.0667ZM68.5406 55.3126C66.0732 53.3386 63.7774 51.0863 61.1076 49.4404C51.3088 43.3995 40.9437 39.9084 29.4104 43.9699C25.6967 45.2777 22.9535 47.7162 22.479 52.606C24.3037 52.1176 25.6755 51.498 27.0775 51.4195C32.8084 51.0985 38.691 50.0284 44.2591 50.8951C62.0335 53.6618 75.1779 71.9623 77.2649 89.0381C77.5103 91.0461 78.4306 92.9716 79.277 95.7077C86.2658 85.6058 81.4749 68.6599 68.5406 55.3126ZM48.7756 98.2555C49.729 99.3417 50.6824 100.428 51.8946 101.809C57.3416 88.8295 44.1048 77.9271 31.2525 74.1953C21.4725 71.3555 12.8844 74.1583 11.786 79.3149C18.8177 80.2108 26.1852 80.2052 32.9229 82.2625C40.2756 84.5075 45.3371 90.3551 48.7756 98.2555ZM138.184 64.1705C141.143 52.0584 140.247 40.1333 136.176 28.4451C135.158 25.523 133.452 22.8315 129.659 23.1479C135.889 40.7424 135.57 58.228 129.844 76.8483C135.839 73.7029 136.271 68.9321 138.184 64.1705ZM157.335 58.367C156.098 62.7642 154.861 67.1614 153.592 71.6693C161.108 68.4123 164.987 53.3985 160.152 45.143C159.183 49.5637 158.31 53.5493 157.335 58.367Z" fill="#090A07"/>
</svg>
