<svg preserveAspectRatio="none" width="100%" height="100%" overflow="visible" style="display: block;" viewBox="0 0 474 545" fill="none" xmlns="http://www.w3.org/2000/svg">
<g id="file (12) 1">
<path id="Vector" d="M185.788 506.232C171.748 503.216 161.949 494.865 152.914 485.088C146.893 478.574 140.686 472.118 133.863 466.482C121.415 456.2 110.899 443.817 101.015 431.549C85.7702 412.625 76.5958 389.744 73.7525 365.313C69.6651 330.192 72.6376 294.861 72.3083 259.623C72.2764 256.211 72.5734 252.598 73.6707 249.405C81.2607 227.322 83.8136 203.803 94.0414 182.386C100.515 168.83 108.379 155.854 113.978 142.099C122.531 121.088 135.92 103.868 149.803 86.5552C163.871 69.0118 183.128 61.4954 204.01 57.502C239.022 50.8063 274.304 48.0756 309.917 52.8069C332.666 55.8291 352.092 65.621 367.159 82.4623C385.823 103.323 400.456 126.691 410.243 153.44C415.27 167.18 422.671 180.605 425.855 194.676C429.986 212.929 434.843 231.323 435.681 250.263C435.956 256.471 432.794 262.086 432.862 268.435C433.124 292.843 432.006 317.138 429.322 341.5C427.794 355.364 426.761 369.469 424.562 383.198C421.612 401.627 413.809 418.921 407.873 436.628C397.107 468.741 373.223 489.112 345.16 505.531C341.811 507.49 337.963 508.82 334.178 509.774C312.714 515.185 291.482 521.723 269.386 524.229C259.273 525.376 249.173 523.669 239.15 522.654C232.856 522.016 226.751 519.726 220.238 519.827C217.039 519.876 213.742 518.943 211.311 516.694C204.234 510.148 195.316 508.274 185.788 506.232ZM415.597 206.921C414.721 202.842 414.012 198.72 412.944 194.692C403.54 159.214 387.573 126.998 364.932 98.0727C355.023 85.4137 343.413 74.4554 328.182 69.2736C314.966 64.7774 300.87 63.4234 286.76 62.4923C260.937 60.7883 235.639 65.6312 210.123 67.5264C201.727 68.15 193.33 70.5521 185.362 74.4153C166.621 83.5018 153.308 98.2517 142.412 115.154C114.91 157.815 94.1276 203.971 85.6849 253.84C79.5592 290.023 79.8031 327.502 85.8836 364.216C90.8268 394.063 103.409 420.295 125.721 441.437C135.373 450.583 145.794 458.983 154.034 469.559C163.915 482.238 177.146 489.81 191.909 495.611C207.783 501.848 224.097 502.366 240.676 501.443C246.9 501.097 250.944 503.308 252.343 508.778C251.211 511.809 248.173 508.509 247.195 512.013C256.964 513.718 266.347 513.819 275.971 512.521C288.091 510.886 298.811 503.66 310.638 502.839C325.74 501.791 337.962 495.062 350.248 487.882C366.08 478.63 378.982 465.661 388.462 450.37C402.599 427.57 408.471 401.454 413.87 375.425C414.97 370.122 414.316 364.667 415.086 359.246C418.306 336.587 421.365 313.797 419.789 290.891C418.915 278.19 418.883 265.941 422.714 253.704C424.184 249.009 424.314 243.704 422.861 239.039C419.703 228.894 418.489 218.364 415.597 206.921Z" fill="var(--fill-0, black)"/>
<path id="Vector_2" d="M224.045 347.906C223.217 357.941 222.551 367.273 221.48 376.558C220.769 382.728 222.354 388.561 224.828 393.764C229.644 403.898 230.961 415.055 235.141 425.337C236.374 428.367 238.003 432.4 234.602 434.899C231.16 437.428 227.151 436.588 223.486 434.338C218.46 431.254 215.122 426.631 212.374 421.689C209.893 417.226 207.498 417.684 204.319 420.628C200.297 424.353 197.475 428.997 194.31 433.38C192.628 435.708 190.614 437.691 187.549 436.674C184.7 435.728 183.52 433.197 183.264 430.3C182.711 424.04 185.978 418.965 188.349 413.561C192.177 404.838 198.495 397.288 199.75 387.331C202.765 363.41 197.334 340.366 193.001 317.192C192.791 316.071 191.949 315.068 190.92 313.079C187.677 316.811 184.86 320.032 182.067 323.273C179.495 326.258 176.829 330.129 172.452 328.438C168.494 326.909 168.566 322.274 168.738 318.697C169.414 304.675 170.681 290.69 175.603 277.378C177.53 272.165 178.563 266.87 177.335 261.492C175.181 252.051 176.619 242.392 175.616 233.066C172.308 231.517 170.646 233.764 168.717 235.094C165.714 237.165 162.727 238.739 159.401 235.712C156.245 232.839 155.887 229.346 157.278 225.568C160.306 217.342 165.76 210.609 171.099 203.866C174.335 199.778 175.654 195.484 175.548 190.256C175.235 174.88 177.993 159.877 182.13 145.129C183.486 140.293 185.514 135.109 191.267 134.738C196.824 134.38 199.999 138.784 202.117 143.439C207.828 155.992 212.389 168.722 214.092 182.718C215.715 196.059 219.608 209.153 224.401 221.874C227.232 229.386 234.315 233.255 238.507 239.71C244.462 248.879 244.196 258.852 244.368 268.743C244.445 273.157 244.095 277.487 245.312 281.796C246.004 284.245 245.763 286.707 244.919 289.076C244.011 291.624 243.19 294.648 240.157 295.128C236.984 295.629 235.457 292.838 234.107 290.503C231.094 285.295 228.232 280.001 224.036 275.024C224.036 299.077 224.036 323.13 224.045 347.906Z" fill="var(--fill-0, black)"/>
<path id="Vector_3" d="M322.713 233.048C324.026 252.08 325.214 270.438 326.443 289.436C329.228 284.933 331.81 281.111 334.021 277.086C336.434 272.693 340.75 271.494 344.674 272.31C349.276 273.266 347.336 277.821 347.308 281.102C347.247 288.5 346.567 295.97 347.356 303.28C348.534 314.196 343.816 322.667 338.301 331.306C329.428 345.203 323.687 360.162 323.365 377.033C323.039 394.097 321.468 411.009 312.969 426.462C310.477 430.995 307.436 435.402 302.223 435.291C296.567 435.171 293.075 430.781 291.819 425.271C288.759 411.851 284.601 398.574 284.006 384.755C283.531 373.702 280.812 364.185 272.361 356.418C267.387 351.847 264.43 345.857 264.499 338.661C264.56 332.246 266.399 330.652 272.43 332.513C280.208 334.913 280.963 333.869 280.815 325.721C280.515 309.257 280.909 292.794 275.026 276.994C271.454 267.399 270.722 257.302 270.449 247.178C270.378 244.52 269.989 241.366 273.198 240.152C276.531 238.892 278.735 241.236 280.811 243.407C281.32 243.939 281.738 244.56 282.192 245.144C283.816 247.229 284.988 250.183 288.428 249.314C291.863 248.446 292.722 245.39 293.209 242.45C295.382 229.33 298.087 216.263 297.505 202.837C297.367 199.635 297.202 196.402 297.483 193.221C298.459 182.168 296.289 172.366 288.307 163.954C282.279 157.601 279.344 149.283 276.352 141.157C275.365 138.476 274.896 135.507 277.225 133.558C279.908 131.313 282.227 133.652 284.425 135.217C290.356 139.439 294.24 146.581 302.96 147.651C307.699 142.502 311.425 135.601 318.297 131.815C320.466 130.619 322.58 128.801 325.096 130.336C327.816 131.996 327.743 134.887 327.253 137.635C325.826 145.629 325.497 154.07 322.594 161.498C316.14 178.012 319.429 194.457 320.844 211.017C321.452 218.134 322.009 225.256 322.713 233.048Z" fill="var(--fill-0, black)"/>
</g>
</svg>
