<svg preserveAspectRatio="none" width="100%" height="100%" overflow="visible" style="display: block;" viewBox="0 0 400 560" fill="none" xmlns="http://www.w3.org/2000/svg">
<g id="file (11) 1">
<path id="Vector" d="M144.379 320.635C138.446 327.444 133.907 334.592 130.653 342.583C129.605 345.158 128.412 349.012 124.737 347.539C120.843 345.978 122.231 342.278 123.634 339.446C128.359 329.909 133.815 320.812 141.213 313.068C143.394 310.786 144.829 308.711 143.484 305.406C142.884 303.931 142.716 301.985 144.41 300.867C146.101 299.749 147.561 300.869 148.982 301.754C155.238 305.649 155.355 305.523 157.932 298.999C159.501 295.029 161.056 291.334 167.014 294.126C170.94 295.966 173.765 292.862 174.661 288.996C175.836 283.923 178.485 282.868 183.661 283.062C191.598 283.358 199.134 280.819 204.9 274.805C206.791 272.833 208.742 271.024 211.049 269.568C212.956 268.364 215.141 267.744 216.911 269.121C220.641 272.023 224.272 275.111 227.577 278.483C229.926 280.88 228.209 283.231 226.152 284.857C222.478 287.76 222.459 290.941 225.79 293.673C234.719 300.994 238.042 311.015 240.771 321.695C244.214 335.175 248.975 348.323 251.614 362.016C255.045 379.822 250.762 395.787 239.55 409.985C236.603 413.718 232.82 414.604 228.408 413.808C220.019 412.294 214.092 407.398 210.033 400.118C204.167 389.597 198.411 379.016 192.214 367.744C188.858 374.895 189.254 382.17 188.02 389.078C186.835 395.714 177.039 399.844 171.342 395.944C169.144 394.438 169.639 392.277 170.486 390.328C175.268 379.326 176.414 367.449 178.975 355.908C179.67 352.774 179.745 349.713 179.401 346.622C178.396 337.572 178.361 337.56 188.871 337.989C181.903 324.954 183.218 311.006 181.897 296.162C168.232 303.68 156.117 311.446 144.379 320.635ZM244.343 366.05C241.768 350.267 235.743 335.348 232.7 319.675C232.21 317.151 231.544 313.93 227.764 314.417C216.224 315.904 205.595 319.761 196.348 327.015C194.227 328.679 194.037 330.464 195.15 333.011C197.435 338.238 201.17 342.465 204.325 347.068C208.999 353.885 211.609 361.753 215.441 369.331C216.972 368.421 217.788 367.746 218.726 367.407C226.544 364.585 234.371 357.963 242.248 367.38C242.789 368.026 243.786 367.763 244.343 366.05ZM208.115 282.758C204.595 285.799 200.695 288.065 196.048 288.938C193.932 289.336 191.87 290.198 191.431 292.566C189.732 301.723 189.835 310.88 191.199 321.607C202.146 311.984 215.357 310.505 227.732 305.537C224.688 302.086 222.594 303.557 220.675 304.524C218.861 305.437 217.207 307.325 215.203 305.104C213.564 303.288 212.677 300.819 213.885 298.736C217.516 292.478 211.194 288.102 211.117 282.595C211.116 282.506 209.653 282.438 208.115 282.758ZM240.222 394.49C241.247 392.01 242.636 389.614 243.233 387.035C245.666 376.526 238.73 372.392 231.818 372.939C223.662 373.584 215.527 375.74 209.641 382.508C211.463 387.366 213.52 391.87 216.272 396.037C224.817 408.972 232.541 408.736 240.222 394.49ZM203.231 360.019C201.304 356.443 199.376 352.867 197.131 348.703C196.948 358.722 198.948 367.222 205.447 375.018C207.436 369.475 204.952 365.272 203.231 360.019Z" fill="var(--fill-0, black)"/>
<path id="Vector_2" d="M199.043 159.255C197.473 153.306 199.959 146.939 194.803 141.907C191.216 144.906 187.924 148.02 184.279 150.645C164.761 164.704 154.001 185.518 141.891 205.294C140.372 207.774 139.227 210.483 137.713 212.966C136.389 215.139 134.45 216.35 131.948 214.771C129.52 213.239 130.48 211.244 131.516 209.32C138.43 196.481 145.589 183.793 154.215 171.995C157.304 167.771 160.362 163.696 158.779 157.756C158.187 155.535 159.421 152.889 161.322 151.21C161.705 151.125 161.97 150.976 162.091 151.053C174.656 159.027 171.999 150.301 171.652 142.826C171.532 140.256 174.931 140.976 176.682 142.182C178.749 143.606 180.556 144.553 182.796 142.597C185.2 140.497 184.156 138.174 183.625 135.703C183 132.795 178.973 129.206 183.524 127C188.038 124.811 189.908 129.274 191.965 132.337C192.636 133.337 192.863 134.742 194.481 135.065C198.097 133.946 197.833 130.286 199.122 127.612C200.739 124.256 202.021 119.983 206.514 120.118C211.187 120.259 211.849 124.694 212.911 128.262C214.147 132.413 214.949 136.761 218.75 140.12C222.519 137.507 222.357 133.257 223.151 129.659C223.947 126.053 225.16 123.026 229.173 122.869C233.129 122.714 234.029 126.16 235.051 129.139C235.389 130.123 235.93 131.146 235.894 132.133C235.544 141.635 239.578 149.463 243.711 157.822C250.016 170.575 257.907 182.252 265.345 194.221C273.515 207.369 277.561 221.371 277.781 236.736C277.847 241.372 276.157 244.296 271.956 245.93C267.495 247.666 263.049 249.444 258.565 251.119C251.186 253.875 245.223 251.002 239.651 246.357C230.845 239.016 222.412 231.293 214.697 222.795C213.206 221.152 212.035 218.964 209.264 218.669C206.248 220.265 206.771 224.166 204.567 226.364C202.932 227.994 201.336 230.006 198.827 229.492C196.309 228.976 195.544 226.564 194.854 224.331C192.026 215.186 195.351 206.229 195.715 197.183C195.795 195.21 196.871 193.487 199.05 193.201C201.598 192.867 202.722 194.855 203.68 196.701C207.248 203.578 211.343 210.062 217.169 215.288C219.414 217.301 221.519 219.613 225.527 219.475C211.084 201.931 204.08 181.31 199.043 159.255ZM224.627 204.754C225.128 205.419 225.752 206.024 226.111 206.758C228.935 212.53 232.527 214.805 239.03 211.303C244.344 208.441 250.559 207.979 256.594 207.433C258.768 207.236 261.244 207.972 263.501 205.223C257.358 196.914 252.362 187.668 246.889 178.706C239.821 167.132 235.859 166.131 223.986 173.229C221.347 174.807 219.184 177.169 216.751 179.106C214.013 181.287 213.865 183.679 215.34 186.797C218.096 192.624 220.592 198.57 224.627 204.754ZM232.183 228.904C237.162 233.308 241.435 238.436 246.869 242.403C253.389 247.165 258.716 242.416 264.411 240.757C269.422 239.297 269.03 235.187 268.677 231.129C268.425 228.232 268.423 225.311 268.392 222.399C268.35 218.491 266.294 216.386 262.668 215.254C255.232 212.934 236.421 218.474 231.454 224.424C230.129 226.01 229.632 227.131 232.183 228.904ZM208.812 152.98C206.695 160.013 208.653 166.344 211.771 173.859C219.102 165.609 228.187 162.792 237.831 159.95C234.083 154.645 229.418 154.623 225.023 154.149C219.9 153.596 214.62 154.725 208.812 152.98Z" fill="var(--fill-0, black)"/>
<path id="Vector_3" d="M76.8806 254.59C79.67 249.531 83.8792 248.882 88.2663 250.44C91.4362 251.566 92.3446 260.495 89.949 264.895C87.6945 269.035 83.6213 269.606 79.6554 268.702C76.4669 267.975 75.3228 264.949 75.52 261.815C75.6625 259.551 76.3181 257.32 76.8806 254.59Z" fill="var(--fill-0, black)"/>
<path id="Vector_4" d="M214.387 472.012C218.668 467.092 223.15 468.164 226.68 471.609C229.906 474.757 230.121 479.229 227.377 483.081C224.632 486.936 220.708 487.512 216.982 484.781C212.717 481.655 210.784 477.524 214.387 472.012Z" fill="var(--fill-0, black)"/>
<path id="Vector_5" d="M346.727 223.283C350.056 227.501 348.511 231.308 346.346 234.589C343.971 238.19 339.848 239.021 336.515 236.593C332.499 233.667 331.811 228.768 333.295 224.24C334.658 220.083 338.397 218.981 342.436 220.085C343.91 220.489 345.101 221.932 346.727 223.283Z" fill="var(--fill-0, black)"/>
<path id="Vector_6" d="M330.047 332.132C324.162 330.786 321.922 327.034 323.053 321.896C324.063 317.306 327.354 315.015 332.373 315.839C335.246 316.31 337.531 317.483 338.616 320.289C339.92 323.66 338.192 326.311 336.326 328.874C334.894 330.842 332.835 331.735 330.047 332.132Z" fill="var(--fill-0, black)"/>
<path id="Vector_7" d="M216.053 68.6991C213.859 64.4954 214.416 61.0412 217.562 58.2253C219.801 56.2213 222.583 54.8623 225.519 56.2746C229.263 58.0759 232.264 61.2165 231.212 65.5326C230.073 70.2063 225.624 71.1013 221.343 71.3115C219.387 71.4075 217.796 70.3708 216.053 68.6991Z" fill="var(--fill-0, black)"/>
<path id="Vector_8" d="M90.5834 344.328C97.1008 341.284 99.341 345.244 100.9 349.969C102.568 355.024 100.067 358.4 95.8739 360.789C93.9599 361.879 92.1294 361.21 90.8749 359.58C88.3315 356.277 85.6645 352.943 87.0188 348.285C87.5163 346.574 88.8358 345.544 90.5834 344.328Z" fill="var(--fill-0, black)"/>
<path id="Vector_9" d="M331.087 146.556C331.825 148.104 332.469 149.216 332.706 150.409C333.38 153.81 334.844 157.621 330.316 159.539C326.612 161.107 322.701 161.134 320.296 157.445C318.052 154.004 317.224 149.806 320.522 146.532C323.534 143.542 327.238 142.241 331.087 146.556Z" fill="var(--fill-0, black)"/>
<path id="Vector_10" d="M81.0579 220.072C84.1354 218.881 87.2106 216.68 89.508 219.262C92.4922 222.615 91.4402 227.096 90.6996 231.113C90.0901 234.42 87.0249 234.769 84.3781 234.987C78.4195 235.478 78.6641 231.029 78.3961 227.083C78.2229 224.532 78.4984 222.125 81.0579 220.072Z" fill="var(--fill-0, black)"/>
<path id="Vector_11" d="M151.371 87.2803C152.746 93.5776 148.435 94.9613 144.363 95.5584C139.784 96.2298 134.634 91.8493 134.434 88.005C134.226 84.0117 137.727 81.2586 142.538 81.6856C146.245 82.0146 149.333 83.4317 151.371 87.2803Z" fill="var(--fill-0, black)"/>
<path id="Vector_12" d="M92.9105 306.242C92.6915 312.5 88.9693 314.253 84.1308 313.776C79.6271 313.332 78.1973 309.533 77.9264 305.712C77.6039 301.163 80.5902 298.871 84.7837 298.646C89.5123 298.392 92.7368 300.452 92.9105 306.242Z" fill="var(--fill-0, black)"/>
<path id="Vector_13" d="M110.177 402.993C107.963 402.777 106.632 401.785 105.625 400.443C103.512 397.625 101.049 394.697 103.422 390.974C105.087 388.363 107.801 386.992 110.913 387.794C115.037 388.856 117.765 391.589 118.386 395.932C118.957 399.927 115.869 401.193 113.023 402.492C112.295 402.824 111.427 402.852 110.177 402.993Z" fill="var(--fill-0, black)"/>
<path id="Vector_14" d="M137.508 428.097C146.26 431.997 147.802 438.4 141.802 444.032C138.239 447.377 134.811 446.74 133.246 442.159C131.397 436.742 130.831 431.458 137.508 428.097Z" fill="var(--fill-0, black)"/>
<path id="Vector_15" d="M296.468 420.656C294.413 416.668 293.088 412.741 295.73 409.282C297.947 406.38 301.769 406.874 305.005 407.322C309.558 407.953 311.49 411.841 308.817 415.439C305.955 419.291 302.838 423.643 296.468 420.656Z" fill="var(--fill-0, black)"/>
<path id="Vector_16" d="M260.717 458.3C263.089 454.668 265.763 451.936 270.022 453.253C273.627 454.368 276.647 457.1 275.57 461.034C274.407 465.282 270.502 467.971 266.117 467.521C261.41 467.037 260.096 463.16 260.717 458.3Z" fill="var(--fill-0, black)"/>
<path id="Vector_17" d="M290.302 98.1014C288.304 97.4604 286.625 97.1094 285.258 96.2577C282.788 94.7178 278.884 93.7789 280.457 89.5845C281.753 86.128 284.448 83.4138 288.356 83.7667C293.146 84.1992 295.354 88.1071 296.101 92.2616C296.734 95.7799 294.734 98.1727 290.302 98.1014Z" fill="var(--fill-0, black)"/>
<path id="Vector_18" d="M107.658 153.487C105.442 158.572 101.549 159.424 97.208 158.342C94.0995 157.567 93.3667 154.766 93.5897 151.874C93.893 147.942 94.8079 144.012 99.7199 144.015C105.358 144.018 107.739 147.594 107.658 153.487Z" fill="var(--fill-0, black)"/>
<path id="Vector_19" d="M344.995 264.029C346.367 265.834 346.492 267.444 346.37 269.128C346.077 273.151 344.694 276.442 340.32 277.359C337.549 277.94 335.423 276.857 334.574 274.008C333.383 270.012 332.092 265.807 335.865 262.53C338.958 259.843 341.992 261.193 344.995 264.029Z" fill="var(--fill-0, black)"/>
<path id="Vector_20" d="M83.7772 188.138C84.281 187.151 84.533 186.53 84.9868 186.149C89.965 181.973 94.5468 181.49 96.8452 184.854C98.9261 187.899 96.8762 193.472 92.6468 196.537C90.6841 197.959 88.3439 199.097 86.4011 197.597C83.6098 195.444 83.258 192.019 83.7772 188.138Z" fill="var(--fill-0, black)"/>
<path id="Vector_21" d="M302.446 123.177C301.799 119.686 301.918 116.953 304.934 115.111C308.445 112.967 314.263 114.16 316.524 117.597C318.626 120.792 317.136 122.995 314.563 124.937C309.592 128.69 306.324 128.347 302.446 123.177Z" fill="var(--fill-0, black)"/>
<path id="Vector_22" d="M309.213 379.206C309.446 371.984 314.023 367.972 319.158 370.137C322.519 371.554 324.659 374.579 323.5 378.102C322.083 382.412 318.237 383.656 313.889 382.832C311.979 382.47 310.596 381.155 309.213 379.206Z" fill="var(--fill-0, black)"/>
<path id="Vector_23" d="M176.23 466.26C176.133 468.555 174.922 469.64 173.652 470.754C169.987 473.972 166.245 474.556 162.79 470.701C159.978 467.564 161.068 464.546 164.04 462.144C167.846 459.067 171.556 458.888 174.763 463.08C175.376 463.88 175.727 464.881 176.23 466.26Z" fill="var(--fill-0, black)"/>
<path id="Vector_24" d="M250.742 78.0535C247.9 72.998 249.773 70.2464 254.509 69.0485C258.596 68.0149 262.501 67.9844 263.85 73.1685C265.134 78.1053 261.69 81.8644 256.606 80.9081C254.668 80.5437 252.905 79.2558 250.742 78.0535Z" fill="var(--fill-0, black)"/>
<path id="Vector_25" d="M175.738 73.7392C171.6 70.9279 169.572 67.7798 173.304 63.8186C175.848 61.1194 182.708 61.9539 185.282 64.9567C187.882 67.9889 186.867 72.2706 183.006 73.379C180.877 73.9902 178.5 73.7391 175.738 73.7392Z" fill="var(--fill-0, black)"/>
<path id="Vector_26" d="M122.945 118.953C118.441 119.693 115.796 118.008 114.441 114.152C113.687 112.01 114.639 110.564 116.323 109.465C119.613 107.318 123.255 106.423 126.799 108.334C130.526 110.343 128.962 114.956 122.945 118.953Z" fill="var(--fill-0, black)"/>
<path id="Vector_27" d="M342.473 192.262C341.74 196.313 339.18 197.417 336.027 197.275C333.99 197.184 333.41 195.4 333.393 193.651C333.36 190.417 332.238 186.191 336.103 184.851C342.375 182.675 341.742 188.141 342.473 192.262Z" fill="var(--fill-0, black)"/>
<path id="Vector_28" d="M214.747 326.654C218.273 327.949 219.833 330.609 221.467 333.242C223.346 336.272 223.093 338.616 219.635 340.228C216.32 341.774 213.706 341.668 212.415 337.605C211.136 333.577 207.277 329.159 214.747 326.654Z" fill="var(--fill-0, black)"/>
<path id="Vector_29" d="M220.369 385.042C224.525 384.632 229.303 382.652 229.633 389.015C229.744 391.155 228.25 393.573 225.765 394.196C222.936 394.904 221.114 392.713 219.452 390.959C217.662 389.07 217.315 386.905 220.369 385.042Z" fill="var(--fill-0, black)"/>
<path id="Vector_30" d="M234.626 188.721C232.274 189.196 230.454 189.06 228.754 188.168C226.789 187.137 224.348 186.443 224.376 183.615C224.394 181.724 225.907 180.757 227.448 180.143C229.7 179.246 231.968 179.339 233.652 181.305C235.439 183.39 238.233 185.411 234.626 188.721Z" fill="var(--fill-0, black)"/>
<path id="Vector_31" d="M251.584 239.667C245.35 235.817 248.096 231.557 250.011 226.759C254.275 228.781 257.157 231.428 257.286 235.654C257.374 238.53 254.89 239.783 251.584 239.667Z" fill="var(--fill-0, black)"/>
</g>
</svg>
