<svg width="197" height="134" viewBox="0 0 197 134" fill="none" xmlns="http://www.w3.org/2000/svg">
<path d="M153.046 88.2172C151.107 93.6897 149.338 98.8448 147.734 104.051C144.112 115.803 138.235 119.077 126.302 115.834C124.865 115.443 123.485 114.847 122.059 114.409C114.249 112.008 111.218 112.296 103.232 116.148C105.31 125.573 103.901 130.34 97.1868 132.468C93.5861 133.609 88.8427 134.043 85.5428 132.629C78.7918 129.737 72.6992 125.327 66.2682 121.66C63.9228 120.323 61.4825 118.638 58.9214 118.278C43.342 116.084 28.2895 112.128 14.5672 104.364C10.1025 101.837 6.40883 97.736 2.83731 93.9117C0.0538781 90.9313 1.24692 88.5557 5.21703 87.5906C7.10042 87.1328 8.93528 86.4752 11.6552 85.6446C8.56864 84.6847 6.33041 84.1096 4.18286 83.2952C-0.0460558 81.6915 -1.07041 79.3564 1.11912 75.6443C11.017 58.8632 23.6713 44.6951 41.2711 35.7885C48.3137 32.2245 56.0507 30.0555 63.3405 26.9442C65.7905 25.8986 68.1231 24.1887 70.0119 22.288C76.532 15.7269 82.6813 8.79109 89.328 2.36639C90.9032 0.843746 94.8053 -0.594848 96.0242 0.251286C100.571 3.40741 105.556 4.48653 110.623 6.16159C115.543 7.78833 119.346 12.765 123.683 16.2172C124.294 16.7035 125.142 16.8969 125.887 17.2078C134.037 20.6059 134.972 23.9406 129.869 30.8242C137.094 34.6846 144.279 38.694 151.673 42.2694C152.655 42.7443 155.258 41.4305 156.16 40.2308C159.649 35.5951 162.437 30.412 166.096 25.93C169.321 21.9782 173.125 18.3997 177.107 15.1947C180.553 12.4213 184.784 10.8985 189.213 13.0994C193.908 15.4329 195.174 20.0832 194.582 24.5426C193.563 32.2248 192.32 40.0482 189.749 47.3089C186.746 55.7896 187.178 63.2561 191.401 71.0991C195.046 77.8703 197.178 85.1935 196.166 93.1465C195.492 98.4531 192.884 101.008 187.856 99.1914C181.834 97.0156 176.234 93.6636 170.481 90.7625C168.108 89.5659 165.756 88.3076 163.493 86.9169C159.791 84.6412 156.384 84.4603 153.046 88.2172ZM168.802 39.062C182.421 25.8747 183.684 24.3421 183.497 20.5436C176.297 25.2732 171.114 31.2365 167.092 39.084C167.135 39.3568 167.179 39.6296 167.223 39.9023C167.532 39.6819 167.841 39.4614 168.802 39.062ZM149.026 82.6236C151.243 80.3672 153.622 78.246 155.645 75.8279C160.655 69.842 160.205 60.4111 155.064 56.6279C154.691 60.7471 154.306 65.0023 153.905 69.4323C150.289 67.393 147.631 65.8938 145.675 64.7905C142.554 69.1 140.195 72.3587 137.835 75.6174C137.18 75.3303 136.525 75.0432 135.87 74.7561C135.87 72.4192 135.648 70.056 135.92 67.7513C136.382 63.8409 135.925 60.5869 131.247 58.7247C131.288 65.6122 131.86 72.4815 123.515 75.0303C120.564 68.3305 127.711 58.9857 116.663 54.8855C116.979 56.8829 117.416 58.3176 117.383 59.7416C117.332 61.986 117.739 64.8738 116.539 66.3016C114.978 68.1589 112.035 68.854 109.686 70.0494C108.979 68.1286 108.108 66.2502 107.598 64.2783C106.544 60.2011 105.855 56.0196 104.594 52.0141C104.343 51.2183 102.2 51.0185 100.93 50.5439C100.855 51.8358 100.309 53.3454 100.787 54.3822C102.953 59.0752 102.442 63.2753 98.4906 66.54C96.909 67.8468 94.4783 68.1259 92.4342 68.8728C92.2062 67.0445 91.6476 65.1859 91.8114 63.3934C92.3346 57.6676 90.1873 54.115 84.5618 52.9436C84.9444 54.7472 85.5102 56.2797 85.5454 57.8242C85.6121 60.7545 86.0803 63.9877 85.0167 66.5223C84.3037 68.2216 81.2392 68.9342 79.2268 70.0882C78.6574 68.3643 77.6356 66.6481 77.6057 64.9149C77.525 60.235 75.5043 57.8929 70.1611 57.082C70.9429 63.4588 71.7226 69.8186 72.5011 76.1688C80.1815 75.1571 87.6916 73.9781 95.2455 73.2569C98.7529 72.9221 103.671 71.844 105.004 75.946C106.087 79.2766 104.762 83.5601 103.896 87.2789C103.483 89.0525 101.773 90.6045 100.444 92.0707C93.5795 99.6494 84.9759 101.774 75.0819 100.302C66.9816 99.098 64.6952 100.429 60.2469 108.162C93.8167 113.845 122.641 103.781 149.026 82.6236ZM11.7942 78.9389C14.9309 80.0098 18.2254 80.7734 21.1423 82.2722C22.7713 83.1092 24.9103 85.278 24.7769 86.6477C24.5996 88.4677 22.761 90.6665 21.0358 91.6636C18.6769 93.0269 15.7532 93.4128 13.0716 94.2176C12.9236 94.7532 12.7755 95.2887 12.6275 95.8242C21.7809 98.983 30.8397 102.461 40.1145 105.21C49.1829 107.898 51.5314 106.606 56.0688 98.452C64.9798 82.4372 63.2755 66.3898 51.0075 50.797C46.4414 44.9935 44.5413 44.6129 38.0446 48.0217C26.0058 54.3383 18.0722 64.8724 9.98066 75.2484C8.70605 76.8828 8.54414 78.2221 11.7942 78.9389ZM175.858 78.6993C173.063 77.4705 170.344 75.49 165.868 77.9459C173.331 82.1431 179.84 85.8462 186.426 89.407C186.841 89.6309 187.855 88.7432 189.704 87.8116C184.411 84.2766 180.476 81.6481 175.858 78.6993ZM169.91 50.7758C176.455 46.9297 183.506 43.5137 184.585 33.4369C179.727 37.8648 175.731 41.4911 171.758 45.1425C171.029 45.8127 170.117 46.4772 169.782 47.3363C169.336 48.4816 169.371 49.8148 169.91 50.7758ZM90.1067 84.145C91.9747 83.4829 93.8426 82.8209 96.354 81.9308C89.7053 79.3291 74.6124 81.9687 71.8172 86.2602C77.924 85.5325 83.5936 84.8569 90.1067 84.145ZM85.9611 21.7354C88.5161 18.1161 91.0711 14.4968 93.6261 10.8774C92.9651 10.353 92.3041 9.82846 91.6431 9.30396C87.3315 13.8502 83.0199 18.3965 78.7083 22.9427C79.1697 23.5337 79.6311 24.1248 80.0924 24.7158C81.8697 23.8958 83.6469 23.0758 85.9611 21.7354ZM61.7511 51.7382C62.2172 52.3563 62.6833 52.9743 63.2506 53.7265C65.6791 48.3511 65.132 44.1062 61.1146 41.4012C59.5814 40.3688 57.0532 40.8143 54.9784 40.5863C54.9019 41.0679 54.8253 41.5495 54.7488 42.0311C56.9263 45.0945 59.1038 48.1578 61.7511 51.7382ZM115.759 43.7139C115.169 38.4001 111.693 36.8108 106.777 36.6174C108.19 39.6134 109.236 42.4884 110.826 45.0219C112.531 47.7396 114.529 48.3051 115.759 43.7139ZM71.7622 94.257C75.8877 93.9798 80.0132 93.7026 85.0392 93.3649C82.1044 90.4416 71.6216 88.8204 70.0063 90.4536C68.7679 91.7056 67.4439 93.6461 71.7622 94.257ZM180.508 69.2681C176.882 66.8467 173.251 64.6765 168.686 69.5195C172.877 70.6783 176.407 71.9702 180.05 72.5479C182.376 72.9166 183.121 71.5943 180.508 69.2681ZM103.563 17.0104C104.094 15.8182 104.625 14.626 105.156 13.4337C101.312 15.2209 98.3089 17.5401 95.6228 20.1819C94.8451 20.9467 94.9777 22.637 94.693 23.903C95.9607 23.5252 97.5117 23.4814 98.4353 22.6979C100.182 21.2159 101.569 19.309 103.563 17.0104ZM96.0501 38.8432C93.8791 37.2855 91.7081 35.7278 89.5371 34.17C89.2072 34.5849 88.8774 34.9998 88.5475 35.4146C89.5644 37.4328 90.4595 39.5259 91.6389 41.4442C92.4953 42.8371 94.012 45.2211 94.7431 45.051C97.8351 44.332 97.3554 41.8884 96.0501 38.8432ZM79.1918 41.549C77.6355 38.6105 76.3028 35.1203 71.9882 38.6951C72.8095 40.4988 73.3745 42.4512 74.5068 43.9849C75.3103 45.0734 76.8794 45.5968 78.1069 46.3724C78.5335 45.0162 78.96 43.6601 79.1918 41.549ZM131.778 44.132C130.463 43.0231 129.147 41.9142 127.035 40.1346C128.394 45.2188 129.373 48.8845 130.353 52.5503C131.14 52.4315 131.927 52.3127 132.715 52.1939C132.525 49.7366 132.335 47.2793 131.778 44.132ZM142.262 48.7321C142.816 52.5594 143.371 56.3866 143.926 60.2139C147.801 55.6399 147.109 51.88 142.262 48.7321ZM175.125 60.0184C176.542 59.0874 177.958 58.1564 179.375 57.2254C178.987 56.5959 178.598 55.9663 178.21 55.3368C175.317 56.4495 172.425 57.5623 169.533 58.675C169.673 59.1541 169.813 59.6332 169.953 60.1122C171.39 60.1122 172.827 60.1122 175.125 60.0184ZM135.869 108.008C133.129 104.29 130.082 104.594 126.888 106.836C126.85 107.485 126.812 108.133 126.774 108.781C129.724 108.781 132.673 108.781 135.869 108.008Z" fill="#0A0C09"/>
<path d="M118.402 75.8232C122.705 81.6367 120.679 87.525 113.711 89.1195C114.208 85.2406 114.514 81.5169 115.27 77.8873C115.46 76.9791 117.101 76.3736 118.402 75.8232Z" fill="#171815"/>
<path d="M130.867 86.9978C125.891 85.7663 129.371 82.766 129.326 80.6195C129.288 78.808 130.275 76.9748 130.875 74.9248C135.364 78.4594 135.319 81.589 130.867 86.9978Z" fill="black"/>
<path d="M37.8376 59.127C44.6757 60.645 47.073 63.1421 47.2184 68.477C47.3464 73.1741 44.4366 76.9714 39.4611 78.6002C33.7326 80.4756 29.3609 78.2262 27.4876 72.4393C25.6799 66.8552 28.2652 61.3745 33.56 59.7492C34.7976 59.3693 36.1379 59.3239 37.8376 59.127ZM40.0241 67.8761C38.3477 67.4174 36.661 66.6217 35 66.672C34.3682 66.6911 33.0732 68.9442 33.3623 69.6651C33.8132 70.7896 35.7791 72.4211 36.3549 72.1638C37.8484 71.4963 38.9338 69.9159 40.0241 67.8761Z" fill="#0D0E0B"/>
<path d="M49.1172 93.1545C51.0646 89.0172 52.8177 85.1977 54.5252 81.4775C58.0109 88.0652 53.6541 97.3198 44.3486 99.4986C45.8734 97.4898 47.3981 95.4811 49.1172 93.1545Z" fill="#1C1D1B"/>
</svg>
